<svg viewBox="0 0 26 26" xmlns="http://www.w3.org/2000/svg">
<path fill-rule="evenodd" clip-rule="evenodd" d="M19.5 1C16.4624 1 14 3.46235 14 6.5C14 9.53765 16.4624 12 19.5 12C22.5376 12 25 9.53765 25 6.5C25 3.46235 22.5376 1 19.5 1ZM14.789 6.5C14.789 3.89823 16.8982 1.78897 19.5 1.78897C22.1018 1.78897 24.211 3.89823 24.211 6.5C24.211 9.10177 22.1018 11.211 19.5 11.211C16.8982 11.211 14.789 9.10177 14.789 6.5ZM21.7083 4.87062C21.8403 4.68307 21.7952 4.42402 21.6076 4.29202C21.4201 4.16002 21.161 4.20512 21.029 4.39267L18.686 7.7221L17.7202 6.73843C17.5596 6.5748 17.2967 6.57233 17.1331 6.7332C16.9695 6.8938 16.967 7.1567 17.1276 7.32032L18.4426 8.65957C18.529 8.74757 18.65 8.7924 18.7726 8.7825C18.8956 8.7726 19.0075 8.70825 19.0784 8.6076L21.7083 4.87062Z" stroke="currentColor" stroke-width="0.03rem" />
<path fill-rule="evenodd" clip-rule="evenodd" d="M6.50003 14C3.46243 14 1 16.4624 1 19.5C1 22.5376 3.46243 25 6.50003 25C9.5376 25 12 22.5376 12 19.5C12 16.4624 9.5376 14 6.50003 14ZM1.78895 19.5C1.78895 16.8982 3.89817 14.789 6.50003 14.789C9.10186 14.789 11.2111 16.8982 11.2111 19.5C11.2111 22.1018 9.10186 24.211 6.50003 24.211C3.89817 24.211 1.78895 22.1018 1.78895 19.5ZM8.70822 17.8706C8.84017 17.6831 8.79515 17.424 8.60765 17.292C8.42008 17.16 8.16105 17.2051 8.02908 17.3927L5.68606 20.7221L4.72025 19.7384C4.55957 19.5748 4.29667 19.5723 4.13305 19.7332C3.96939 19.8938 3.967 20.1567 4.12766 20.3203L5.44257 21.6596C5.52889 21.7476 5.64984 21.7924 5.77265 21.7825C5.89549 21.7726 6.0075 21.7083 6.07843 21.6076L8.70822 17.8706Z" stroke="currentColor" stroke-width="0.03rem" />
<path fill-rule="evenodd" clip-rule="evenodd" d="M1 6.50003C1 3.46243 3.46243 1 6.50003 1C9.5376 1 12 3.46243 12 6.50003C12 9.5376 9.5376 12 6.50003 12C3.46243 12 1 9.5376 1 6.50003ZM6.50003 1.78895C3.89817 1.78895 1.78895 3.89817 1.78895 6.50003C1.78895 9.10186 3.89817 11.2111 6.50003 11.2111C9.10186 11.2111 11.2111 9.10186 11.2111 6.50003C11.2111 3.89817 9.10186 1.78895 6.50003 1.78895Z" stroke="currentColor" stroke-width="0.03rem" />
<path fill-rule="evenodd" clip-rule="evenodd" d="M14 19.5C14 16.4624 16.4624 14 19.5 14C22.5376 14 25 16.4624 25 19.5C25 22.5376 22.5376 25 19.5 25C16.4624 25 14 22.5376 14 19.5ZM19.5 14.7889C16.8982 14.7889 14.7889 16.8982 14.7889 19.5C14.7889 22.1019 16.8982 24.2111 19.5 24.2111C22.1019 24.2111 24.2111 22.1019 24.2111 19.5C24.2111 16.8982 22.1019 14.7889 19.5 14.7889Z" stroke="currentColor" stroke-width="0.03rem" />
</svg>
