<svg xmlns="http://www.w3.org/2000/svg" viewBox="1.05 0 15.95 16">
<path fill-rule="evenodd" clip-rule="evenodd" d="M11.742 0H2.36325C1.63979 0 1.05263 0.587156 1.05263 1.31062V10.6894C1.05263 11.4128 1.63979 12 2.36325 12H5.56301C5.52188 11.8402 5.5 11.6726 5.5 11.5V11.1263H2.36325C2.12209 11.1263 1.92638 10.9305 1.92638 10.6894V7.95369L3.78133 6.09961L5.56123 8.00695C5.63188 7.7283 5.76102 7.47297 5.93482 7.2548L4.07841 5.26606C4.00501 5.18742 3.90366 5.14286 3.79706 5.14111C3.69046 5.13936 3.58823 5.18043 3.51222 5.25557L1.92638 6.84229V1.31062C1.92638 1.06946 2.12209 0.873744 2.36325 0.873744H11.742C11.9832 0.873744 12.1789 1.06946 12.1789 1.31062V6.5H12.5C12.6917 6.5 12.8771 6.52697 13.0526 6.57733V1.31062C13.0526 0.587156 12.4655 0 11.742 0ZM10.9052 6.5L10.593 6.18785C10.5188 6.11446 10.4192 6.07252 10.3143 6.07252C10.2103 6.07252 10.1107 6.11446 10.0365 6.18785L9.72443 6.5H10.9052ZM7.05263 3.31673C6.60003 3.31673 6.23306 3.6837 6.23306 4.1363C6.23306 4.58803 6.60003 4.955 7.05263 4.955C7.50523 4.955 7.87133 4.58803 7.87133 4.1363C7.87133 3.6837 7.50523 3.31673 7.05263 3.31673ZM5.44756 4.1363C5.44756 3.24945 6.16578 2.53036 7.05263 2.53036C7.93948 2.53036 8.6577 3.24945 8.6577 4.1363C8.6577 5.02228 7.93948 5.74137 7.05263 5.74137C6.16578 5.74137 5.44756 5.02228 5.44756 4.1363Z"/>
<path fill-rule="evenodd" clip-rule="evenodd" d="M8.8112 7.02C9.5056 6.95364 10.2488 6.90909 11 6.90909C11.7512 6.90909 12.4944 6.95364 13.1888 7.02C14.024 7.1 14.564 7.15454 14.9776 7.26545C15.3536 7.36636 15.564 7.5 15.7448 7.71C15.764 7.73272 15.792 7.76727 15.8104 7.79182C15.9704 8.00091 16.0744 8.26272 16.1344 8.75727C16.1984 9.28727 16.2 9.97818 16.2 11.0227C16.2 12.0545 16.1984 12.7364 16.1344 13.2591C16.0752 13.7464 15.9712 14.0055 15.8104 14.2173C15.792 14.2409 15.7632 14.2764 15.744 14.2991C15.5608 14.5118 15.3528 14.6436 14.9856 14.7418C14.58 14.8518 14.0512 14.9036 13.2304 14.9818C12.5352 15.0473 11.7808 15.0909 11 15.0909C10.2192 15.0909 9.4648 15.0473 8.7696 14.9818C7.9488 14.9036 7.42 14.8518 7.0144 14.7418C6.6472 14.6436 6.4392 14.5118 6.256 14.2991C6.2368 14.2764 6.208 14.2409 6.1896 14.2173C6.0288 14.0055 5.9248 13.7464 5.8656 13.2591C5.8016 12.7364 5.8 12.0545 5.8 11.0227C5.8 9.97818 5.8016 9.28727 5.8656 8.75727C5.9256 8.26272 6.0296 8.00091 6.1896 7.79182C6.208 7.76727 6.236 7.73272 6.2552 7.71C6.436 7.5 6.6464 7.36636 7.0224 7.26545C7.436 7.15454 7.976 7.1 8.8112 7.02ZM5 11.0227C5 8.98455 5 7.96546 5.584 7.19727C5.6128 7.15909 5.652 7.11091 5.6832 7.07454C6.3072 6.34818 7.12 6.27 8.744 6.11454C9.4552 6.04545 10.2216 6 11 6C11.7784 6 12.5448 6.04545 13.256 6.11454C14.88 6.27 15.6928 6.34818 16.3168 7.07454C16.348 7.11091 16.3872 7.15909 16.416 7.19727C17 7.96546 17 8.98455 17 11.0227C17 13.0364 17 14.0436 16.4152 14.8118C16.3864 14.85 16.3464 14.8982 16.3152 14.9345C15.6904 15.6609 14.8928 15.7364 13.2968 15.8873C12.584 15.9555 11.8064 16 11 16C10.1936 16 9.416 15.9555 8.7032 15.8873C7.1072 15.7364 6.3096 15.6609 5.6848 14.9345C5.6536 14.8982 5.6136 14.85 5.5848 14.8118C5 14.0436 5 13.0364 5 11.0227ZM9.2 9.07546C9.2 8.91091 9.348 8.80091 9.48 8.86727L13.3424 10.7918C13.5016 10.8718 13.5016 11.1282 13.3424 11.2082L9.48 13.1327C9.348 13.1991 9.2 13.0891 9.2 12.9245V9.07546Z" />
</svg>