<svg xmlns="http://www.w3.org/2000/svg" viewBox="0 0 12 10">
<path fill-rule="evenodd" clip-rule="evenodd" d="M3.8112 1.02C4.5056 0.953638 5.2488 0.909091 6 0.909091C6.7512 0.909091 7.4944 0.953638 8.1888 1.02C9.024 1.1 9.564 1.15454 9.9776 1.26545C10.3536 1.36636 10.564 1.5 10.7448 1.71C10.764 1.73272 10.792 1.76727 10.8104 1.79182C10.9704 2.00091 11.0744 2.26272 11.1344 2.75727C11.1984 3.28727 11.2 3.97818 11.2 5.02273C11.2 6.05455 11.1984 6.73636 11.1344 7.25909C11.0752 7.74636 10.9712 8.00546 10.8104 8.21727C10.792 8.24091 10.7632 8.27636 10.744 8.29909C10.5608 8.51182 10.3528 8.64363 9.9856 8.74182C9.58 8.85182 9.0512 8.90363 8.2304 8.98182C7.5352 9.04727 6.7808 9.09091 6 9.09091C5.2192 9.09091 4.4648 9.04727 3.7696 8.98182C2.9488 8.90363 2.42 8.85182 2.0144 8.74182C1.6472 8.64363 1.4392 8.51182 1.256 8.29909C1.2368 8.27636 1.208 8.24091 1.1896 8.21727C1.0288 8.00546 0.924801 7.74636 0.865601 7.25909C0.801601 6.73636 0.8 6.05455 0.8 5.02273C0.8 3.97818 0.801601 3.28727 0.865601 2.75727C0.925601 2.26272 1.0296 2.00091 1.1896 1.79182C1.208 1.76727 1.236 1.73272 1.2552 1.71C1.436 1.5 1.6464 1.36636 2.0224 1.26545C2.436 1.15454 2.976 1.1 3.8112 1.02ZM0 5.02273C0 2.98455 2.67029e-06 1.96546 0.584003 1.19727C0.612803 1.15909 0.651997 1.11091 0.683197 1.07454C1.3072 0.348181 2.12 0.27 3.744 0.114545C4.4552 0.045454 5.2216 0 6 0C6.7784 0 7.5448 0.045454 8.256 0.114545C9.88 0.27 10.6928 0.348181 11.3168 1.07454C11.348 1.11091 11.3872 1.15909 11.416 1.19727C12 1.96546 12 2.98455 12 5.02273C12 7.03637 12 8.04364 11.4152 8.81182C11.3864 8.85 11.3464 8.89818 11.3152 8.93455C10.6904 9.66091 9.8928 9.73636 8.2968 9.88727C7.584 9.95545 6.8064 10 6 10C5.1936 10 4.416 9.95545 3.7032 9.88727C2.1072 9.73636 1.3096 9.66091 0.684802 8.93455C0.653602 8.89818 0.613602 8.85 0.584802 8.81182C2.24113e-06 8.04364 0 7.03637 0 5.02273ZM4.2 3.07546C4.2 2.91091 4.348 2.80091 4.48 2.86727L8.3424 4.79182C8.5016 4.87182 8.5016 5.12818 8.3424 5.20818L4.48 7.13273C4.348 7.19909 4.2 7.08909 4.2 6.92454V3.07546Z" fill="currentColor"/>
</svg>